<?xml version="1.0" standalone="no"?>
<!DOCTYPE svg PUBLIC "-//W3C//DTD SVG 20010904//EN"
 "http://www.w3.org/TR/2001/REC-SVG-20010904/DTD/svg10.dtd">
<svg version="1.0" xmlns="http://www.w3.org/2000/svg"
 width="512.000000pt" height="512.000000pt" viewBox="0 0 512.000000 512.000000"
 preserveAspectRatio="xMidYMid meet">
<metadata>
Created by potrace 1.11, written by Peter Selinger 2001-2013
</metadata>
<g transform="translate(0.000000,512.000000) scale(0.100000,-0.100000)"
fill="#000000" stroke="none">
<path d="M2407 5054 c-1 -1 -36 -4 -77 -8 -94 -8 -140 -14 -210 -26 -30 -5
-68 -12 -85 -14 -16 -3 -88 -21 -160 -41 -228 -62 -433 -152 -663 -290 -72
-43 -178 -119 -260 -185 -445 -359 -765 -871 -886 -1415 -26 -118 -33 -156
-52 -300 -9 -70 -12 -471 -3 -520 4 -22 10 -67 13 -100 6 -59 12 -96 21 -145
3 -14 8 -38 11 -55 24 -143 108 -383 200 -572 274 -562 752 -1016 1315 -1248
35 -15 71 -28 79 -30 8 -2 33 -11 55 -20 82 -35 165 -22 202 33 16 24 18 54
18 277 1 138 -2 255 -7 261 -5 7 -28 7 -75 -1 -37 -6 -115 -11 -173 -10 -235
5 -343 33 -466 125 -62 47 -108 114 -164 243 -51 118 -146 248 -215 297 -76
54 -147 126 -143 147 8 43 91 54 192 26 121 -34 233 -124 321 -260 70 -106
149 -183 233 -225 66 -33 68 -33 202 -32 118 1 145 4 217 28 87 28 83 24 98
109 13 69 54 150 113 225 28 35 30 42 15 43 -10 0 -27 2 -38 4 -11 2 -42 7
-70 10 -27 4 -79 13 -115 21 -36 9 -76 18 -89 20 -46 9 -141 44 -225 83 -248
115 -399 268 -498 504 -16 40 -31 79 -33 87 -3 8 -13 47 -24 86 -21 78 -28
113 -36 189 -3 28 -8 60 -11 72 -11 53 -4 302 11 380 33 172 112 339 213 453
18 20 29 41 26 50 -66 179 -64 376 7 603 12 37 27 67 33 68 89 9 152 -3 291
-56 113 -43 253 -112 337 -168 65 -44 70 -44 158 -22 80 20 151 34 210 41 25
2 77 9 115 14 70 9 447 6 495 -4 14 -2 48 -7 75 -11 58 -7 168 -29 241 -48
l52 -13 78 49 c101 62 300 159 384 187 91 29 143 37 226 31 14 0 24 -10 27
-23 3 -13 15 -54 27 -93 12 -38 23 -79 25 -90 2 -11 6 -36 10 -56 20 -119 8
-271 -30 -378 l-15 -43 38 -47 c158 -191 225 -394 223 -673 -2 -382 -111 -692
-310 -888 -146 -143 -392 -265 -614 -304 -15 -3 -35 -7 -45 -10 -9 -2 -39 -7
-67 -11 -65 -8 -119 -16 -122 -19 -1 -1 9 -15 24 -31 56 -65 106 -165 118
-238 3 -17 9 -41 12 -52 4 -11 7 -214 8 -450 0 -323 4 -438 13 -460 33 -78
113 -89 252 -35 356 137 635 316 895 575 167 166 330 376 425 550 18 33 39 67
45 75 56 73 218 513 232 630 2 19 8 49 13 65 8 29 15 67 25 145 15 112 19 195
19 365 0 193 -5 271 -29 420 -10 65 -56 266 -67 294 -5 14 -11 33 -13 41 -14
67 -87 246 -155 381 -204 408 -498 740 -883 997 -26 18 -50 32 -53 32 -3 0
-20 10 -37 23 -38 27 -52 34 -187 101 -58 29 -136 65 -175 81 -38 15 -86 33
-105 41 -91 36 -338 95 -500 119 -94 14 -491 29 -503 19z"/>
</g>
</svg>
